# xmcd CD database file
#
# Track frame offsets:
#	150
#	14586
#	23964
#	41303
#	55896
#	67559
#	79658
#	93217
#	111749
#	123538
#	135959
#	146678
#
# Disc length: 2141 seconds
#
# Revision: 2
# Processed by: cddbd v1.4PL0 Copyright (c) Steve Scherf et al.
# Submitted via: CDex 1.40Release
#
DISCID=9a085b0c
DTITLE=Markus Svensson - Knuckleduster Blues
DYEAR=2003
DGENRE=Blues
TTITLE0=Jinx Blues
TTITLE1=Moonshine
TTITLE2=Memphis Bum
TTITLE3=Knuckleduster Blues
TTITLE4=Just Because
TTITLE5=God Don't Likle It
TTITLE6=Moonshine Johnny
TTITLE7=One Dime Blues
TTITLE8=Sweet Fortune
TTITLE9=What Is That Tastes Like Gravy
TTITLE10=My Rambling Days
TTITLE11=Dry Spell Blues
EXTD=YEAR: 2003 ID3G: 0
EXTT0=
EXTT1=
EXTT2=
EXTT3=
EXTT4=
EXTT5=
EXTT6=
EXTT7=
EXTT8=
EXTT9=
EXTT10=
EXTT11=
PLAYORDER=
